<svg xmlns="http://www.w3.org/2000/svg" height="48px" viewBox="0 -960 960 960" width="48px" fill="#FFFFFF"><path d="M440-760v-160h80v160h-80Zm266 110-56-56 113-114 56 57-113 113Zm54 210v-80h160v80H760ZM440-40v-160h80v160h-80ZM254-652 141-765l56-57 113 114-56 55Zm508 512L649-255l55-54 114 113-56 56ZM40-440v-80h160v80H40Zm157 300-56-56 112-112 29 27 26 29-111 112Zm283-100q-100 0-170-70t-70-170q0-100 70-170t170-70q100 0 170 70t70 170q0 100-70 170t-170 70Zm0-80q66 0 113-47t47-113q0-66-47-113t-113-47q-66 0-113 47t-47 113q0 66 47 113t113 47Zm0-160Z"/></svg>
